<svg xmlns="http://www.w3.org/2000/svg" width="611.995" height="612.063" viewBox="0 0 611.995 612.063"><path d="M62.194,62.246c82.861-83,217.223-83,300.1,0,77.175,77.29,82.382,199.284,15.795,282.72L612.029,579.228l-32.8,32.835L345.411,377.916c-83.34,67.448-205.755,62.413-283.217-15.145C-20.686,279.775-20.686,145.222,62.194,62.246Zm29.7,270.773a170.07,170.07,0,0,0,240.772,0c66.492-66.587,66.492-174.529,0-241.116a170.071,170.071,0,0,0-240.772,0C25.4,158.49,25.4,266.45,91.889,333.019Z" transform="translate(-0.034 0)"/></svg>