<svg id="Capa_1" enable-background="new 0 0 497 497" height="512" viewBox="0 0 497 497" width="512" xmlns="http://www.w3.org/2000/svg"><g><g><g><path d="m427 178.5c0-79.848-52.432-147.443-124.742-170.254h-84.758v60h84.724c15.025 0 27.205 12.18 27.205 27.205v154.05h-.017-80.912c-39.211 0-70.999-31.789-71-71v213.326l65.704 65.704h68.304l97.663-201.176c11.423-23.528 17.829-49.943 17.829-77.855zm-97.551 71.001c.013-.117.025-.235.031 0z" fill="#ff8e9e"/></g><path d="m311.508 457.532c-11.326 0-21.655-6.464-26.601-16.653-22.363-46.066-83.414-171.825-89.579-184.523-11.422-23.528-17.828-49.944-17.829-77.854 0-7.041 1.063-14.269 3.225-21.205v-65.26l54.049-44.537c19.094-17.678 42.06-31.234 67.485-39.253-.669-.211-1.335-.426-2.008-.629-16.47-4.983-33.941-7.647-52.044-7.618-98.811.159-179.17 81.487-178.197 180.294.268 27.25 6.642 53.037 17.82 76.062l97.663 201.176c11.341 23.362 35.294 39.468 63.008 39.468 20.507 0 38.954-8.818 51.756-22.868 4.425-4.856 8.295-10.509 11.252-16.6z" fill="#ea5b70"/></g><g fill="#4c5699"><path d="m379.481 176.247c-1.188-70.272-58.417-127.518-128.689-128.726-46.122-.792-86.987 22.385-110.941 57.873-7.102 10.521-12.715 22.125-16.54 34.498-5.934 19.194 8.65 38.609 28.741 38.609h.006c13.215 0 24.705-8.598 28.667-21.205 2.624-8.349 6.859-16.372 12.589-23.448 12.982-16.033 32.802-26.299 55.028-26.347 37.968-.083 70.535 31.864 71.148 69.826.469 29.032-16.499 54.141-41.108 65.579-9.085 4.222-19.204 6.595-29.882 6.595-.116 0-.232 0-.347-.001-16.375-.08-29.771 12.944-29.771 29.32v46.584c0 16.345 12.813 30.162 29.151 30.614 16.954.469 30.849-13.136 30.849-29.988v-19.97c58.584-13.721 102.163-66.868 101.099-129.813z"/><circle cx="248.382" cy="416.03" r="30"/></g></g></svg>